<svg xmlns="http://www.w3.org/2000/svg" version="1.1" xmlns:xlink="http://www.w3.org/1999/xlink" xmlns:svgjs="http://svgjs.dev/svgjs" width="1000" height="1000" viewBox="0 0 1000 1000"><rect width="1000" height="1000" fill="#ffbe79"></rect><g transform="matrix(0.7,0,0,0.7,150.0000000000001,106.25)"><svg viewBox="0 0 320 360" data-background-color="#ffbe79" preserveAspectRatio="xMidYMid meet" height="1125" width="1000" xmlns="http://www.w3.org/2000/svg" xmlns:xlink="http://www.w3.org/1999/xlink"><g id="tight-bounds" transform="matrix(1,0,0,1,0,0)"><svg viewBox="0 0 320 360" height="360" width="320"><g><svg></svg></g><g><svg viewBox="0 0 320 360" height="360" width="320"><g><path xmlns="http://www.w3.org/2000/svg" d="M20.961 227.22l3.726 4.658-1.863-6.056c-0.466-2.795-3.726 0.466-1.863 1.398M25.153 224.425c1.397 2.329 2.795 4.658 2.795 6.987 0 3.261 2.795 4.658 5.123 5.589-3.261-3.726-5.124-13.974-7.918-12.576M204.017 26.929c7.918 0 15.371-0.932 23.756 0.931 20.495 5.124 37.729 15.371 49.374 29.811l32.606 52.169c1.397 13.042 4.192 27.482 3.726 43.319 3.261 0 2.795-4.658 6.521-5.59-3.726 9.316-5.59 20.961-6.521 34.469-2.329-7.453 0-18.632 0.466-24.687-3.261 5.124-5.124 1.397-5.124-0.932 0.466-3.726-1.397-3.261-2.795-4.658-5.124-4.658-8.384-9.782-12.11-17.7 2.329-6.055 2.795-14.905-4.658-19.563-2.329-1.397-5.124-3.726-6.521-7.453-1.863-5.124-5.124-11.179-4.193-19.097 0.466-2.329-6.987 5.124-11.179 1.863-18.166-12.576-36.332-27.016-58.224-39.127-11.645 0-20.029-4.192-24.221-9.316-3.726-4.658-0.932-10.713 4.658-11.179 3.261 0 6.987-0.932 9.782 0.932 0.466-1.863 2.329-4.192 4.657-4.192M157.904 16.215l0.932 0.466c4.658 0.932 6.987 7.453 12.11 5.124 0 3.261 0.466 6.521-0.466 8.85-1.397 3.726-5.59 3.726-8.85 3.726-31.208-1.863-49.374 11.179-68.471 22.358-5.124 3.261-10.713 5.59-14.906 9.782-20.029 18.632-41.921 35.866-47.045 70.335l-4.192 38.195c-0.466 4.192-5.124 8.384-4.192 13.508l3.26 22.824c-3.261-3.261-5.124 0.932-4.192 2.795 0.466 1.397 2.329 6.055 5.124 1.863 3.726 6.987 7.453 20.495 12.576 26.55 15.837 18.632 36.332 35.4 53.101 52.169 4.192-0.932 7.453-0.932 8.384-3.727 1.397 2.795-1.397 5.59-3.726 6.056 7.453 4.658 15.837 8.85 27.016 9.781 14.44 0.932 27.948 3.261 40.524 6.522 6.521-1.863 13.042-2.795 20.029-3.261 2.329 0 3.726-3.726 6.521-4.658l0.466-4.658c2.795 4.192 2.329-1.397 0.466-4.192 3.261 2.795 4.192 5.124 5.589 6.987 0-1.397 3.726-6.521 3.727-0.466l0.931-6.055c1.397-0.932 1.863 5.124 3.261 0.931 1.397-4.192 4.192-0.932 6.987-2.329-0.932 1.863-0.466 5.59 2.794 3.261l3.727-3.261c2.329 5.59 6.055 3.261 7.918 2.329 20.495-13.042 40.99-28.413 60.553-43.784l-0.466 6.055 2.329-7.453c2.329 2.329 4.192 0.466 5.124-0.931 2.795-4.658 6.521-9.316 12.577-13.508-7.453 20.029-16.303 35.866-27.482 48.908l-4.658 5.59c0 3.261-0.932 7.453-4.658 7.918-1.863 0.466-5.59-0.932-8.384 1.863-1.397 1.863 3.261 5.59-0.466 2.795-3.261-2.329-6.521 0-10.248 0.932-2.795 0.932 1.863 3.726 2.795 5.589 0.932 1.863 1.863 3.726 1.398 6.056l-5.124-5.59c-6.055 3.261-9.782 9.316-14.906 13.974-2.329 1.863-1.397 5.124-1.397 7.918-3.261 0-6.987-0.932-8.85 0.932-1.397 1.863-0.932 4.658-0.932 7.453-4.658-0.466-5.124-7.453-9.315-6.056-4.192 0.932-8.85 1.397-12.577 3.727 2.795 5.59-4.658 2.329-3.726 3.26-6.987-4.192-13.042-7.453-20.495-4.658-15.837-5.124-35.4-2.795-49.84-0.931 0-2.329 0.466-4.658-0.466-5.124-0.932 2.329-3.726 1.397-3.26 1.397-8.85-6.055-17.7-9.782-27.016-14.905-8.384 0.932-16.303-3.261-18.632-5.59-6.521-6.055-13.974-2.795-20.029-4.192-13.042-3.261-17.7-16.769-19.098-26.084-0.932-4.658-4.658-6.521-6.055-6.056-6.055-19.563-15.371-37.263-22.824-55.429-1.863-4.658-1.397-9.316-1.397-14.44 2.329 0.932 4.658 0.466 4.192-2.794-2.329-15.371-7.918-27.016-13.974-38.195 3.261-15.837 3.726-34.469 11.179-48.443 6.521-12.576 18.632-19.098 27.016-29.811 2.795-3.726 2.795-8.85 5.59-12.11 9.316-9.316 18.632-19.098 28.879-27.482 4.658-3.726 10.247 0 17.234-1.397 2.329-8.384 11.645-15.837 20.495-13.508 3.726 0.932 11.179-8.85 13.508-9.782 3.726-1.397 1.863 3.726 1.863 6.987 8.85-6.987 20.961-10.713 32.14-14.906" fill="#374151" fill-rule="nonzero" stroke="none" stroke-width="1" stroke-linecap="butt" stroke-linejoin="miter" stroke-miterlimit="10" stroke-dasharray="" stroke-dashoffset="0" font-family="none" font-weight="none" font-size="none" text-anchor="none" style="mix-blend-mode: normal" data-fill-palette-color="tertiary"></path></g><g transform="matrix(1,0,0,1,64,145.97143282509649)"><svg viewBox="0 0 192 68.05713434980706" height="68.05713434980706" width="192"><g><svg viewBox="0 0 342.51905577345696 121.41075727157924" height="68.05713434980706" width="192"><g><rect width="5.1098603297483445" height="113.50513377774173" x="132.0325977218543" y="3.952811746918755" fill="#374151" opacity="1" stroke-width="0" stroke="transparent" fill-opacity="1" class="rect-o-0" data-fill-palette-color="primary" rx="1%" id="o-0" data-palette-color="#374151"></rect></g><g transform="matrix(1,0,0,1,150.51905577345696,13.411572895063898)"><svg viewBox="0 0 192 94.58761148145145" height="94.58761148145145" width="192"><g><svg viewBox="0 0 192 94.58761148145145" height="94.58761148145145" width="192"><g><svg viewBox="0 0 192 56.662251655629134" height="56.662251655629134" width="192"><g transform="matrix(1,0,0,1,0,0)"><svg width="192" viewBox="2.1500000953674316 -34.849998474121094 120.79000091552734 35.64999771118164" height="56.662251655629134" data-palette-color="#374151"><path d="M15.35 0.8Q11.6 0.8 8.05-1.07 4.5-2.95 2.15-6.15L2.15-6.15 5.2-8.85Q7-6 9.8-4.33 12.6-2.65 15.85-2.65L15.85-2.65Q19.4-2.65 21.25-4.23 23.1-5.8 23.1-8.5L23.1-8.5Q23.1-11.45 21.13-13.03 19.15-14.6 14.85-15.8L14.85-15.8Q4.05-18.45 4.05-25.6L4.05-25.6Q4.05-30.05 6.95-32.45 9.85-34.85 15-34.85L15-34.85Q18.75-34.85 21.73-33.45 24.7-32.05 27.05-29.15L27.05-29.15 24.1-26.65Q22.3-29.1 20.15-30.28 18-31.45 15-31.45L15-31.45Q11.85-31.45 9.85-29.98 7.85-28.5 7.85-25.95L7.85-25.95Q7.85-23.35 9.7-21.83 11.55-20.3 15.95-19.25L15.95-19.25Q21.15-17.85 24.03-15.4 26.9-12.95 26.9-8.5L26.9-8.5Q26.9-5.75 25.5-3.65 24.1-1.55 21.48-0.38 18.85 0.8 15.35 0.8L15.35 0.8ZM36.9 0L33.15 0 33.15-34.1 36.9-34.1 36.9-19.35 54.9-19.35 54.9-34.1 58.65-34.1 58.65 0 54.9 0 54.9-16.25 36.9-16.25 36.9 0ZM80.05 0.8Q75.8 0.8 72.47-1.48 69.15-3.75 67.27-7.8 65.4-11.85 65.4-17L65.4-17Q65.4-22.15 67.27-26.23 69.15-30.3 72.47-32.58 75.8-34.85 80.05-34.85L80.05-34.85Q84.3-34.85 87.62-32.58 90.95-30.3 92.82-26.23 94.7-22.15 94.7-16.95L94.7-16.95Q94.7-11.8 92.82-7.78 90.95-3.75 87.62-1.48 84.3 0.8 80.05 0.8L80.05 0.8ZM80.05-2.65Q83.15-2.65 85.62-4.48 88.09-6.3 89.5-9.58 90.9-12.85 90.9-17L90.9-17Q90.9-21.15 89.5-24.45 88.09-27.75 85.62-29.6 83.15-31.45 80.05-31.45L80.05-31.45Q76.95-31.45 74.47-29.6 72-27.75 70.59-24.45 69.2-21.15 69.2-17L69.2-17Q69.2-12.85 70.59-9.58 72-6.3 74.47-4.48 76.95-2.65 80.05-2.65L80.05-2.65ZM101.44 0L101.44-34.1 112.84-34.1Q117.44-34.1 120.19-31.3 122.94-28.5 122.94-23.55L122.94-23.55Q122.94-18.65 120.07-15.85 117.19-13.05 112.44-13.05L112.44-13.05 105.19-13.05 105.19 0 101.44 0ZM105.19-16.15L112.34-16.15Q115.69-16.15 117.44-18.03 119.19-19.9 119.19-23.55L119.19-23.55Q119.19-27.2 117.44-29.1 115.69-31 112.34-31L112.34-31 105.19-31 105.19-16.15Z" opacity="1" transform="matrix(1,0,0,1,0,0)" fill="#374151" class="undefined-text-0" data-fill-palette-color="primary" id="text-0"></path></svg></g></svg></g><g transform="matrix(1,0,0,1,0,70.03884937748344)"><svg viewBox="0 0 112.72319999999999 24.54876210396801" height="24.54876210396801" width="112.72319999999999"><g transform="matrix(1,0,0,1,0,0)"><svg width="112.72319999999999" viewBox="4.349999904632568 -34.95000076293945 162.52999877929688 35.400001525878906" height="24.54876210396801" data-palette-color="#374151"><path d="M16.65-34.95L16.65-34.95Q20.35-34.95 22.93-34.05 25.5-33.15 27.08-31.1 28.65-29.05 29.38-25.65 30.1-22.25 30.1-17.25L30.1-17.25Q30.1-12.25 29.38-8.85 28.65-5.45 27.08-3.4 25.5-1.35 22.93-0.45 20.35 0.45 16.65 0.45L16.65 0.45Q13.1 0.45 10.08 0.33 7.05 0.2 4.35 0L4.35 0 6.25-3.6Q8.35-3.55 10.93-3.48 13.5-3.4 16.65-3.4L16.65-3.4Q19.95-3.4 21.9-4.67 23.85-5.95 24.68-8.97 25.5-12 25.5-17.25L25.5-17.25Q25.5-22.5 24.68-25.53 23.85-28.55 21.9-29.85 19.95-31.15 16.65-31.15L16.65-31.15Q13.55-31.15 11.08-31.1 8.6-31.05 6.25-31L6.25-31 4.35-34.5Q7.05-34.7 10.08-34.83 13.1-34.95 16.65-34.95ZM4.35-34.5L8.75-34.5 8.75 0 4.35 0 4.35-34.5ZM36.8-14.25L52.05-14.25 52.05-11 36.8-11 36.8-14.25ZM78.94-34.5L83.29-34.5 73.64-14.1Q73.19-13.1 73.62-12.58 74.04-12.05 74.89-12.05L74.89-12.05 95.34-12.05 95.34-8.9 90.74-8.45 72.44-8.45Q71.04-8.45 70.09-9.25 69.14-10.05 68.87-11.3 68.59-12.55 69.14-13.8L69.14-13.8 78.94-34.5ZM87.49-27.9L90.89-27.9 90.89 0 86.74 0 86.74-22.2 87.49-27.9ZM112.29-14.25L127.54-14.25 127.54-11 112.29-11 112.29-14.25ZM146.53-34.5L150.88-34.5 150.88-7Q150.88-5.3 151.71-4.5 152.53-3.7 154.23-3.7L154.23-3.7 166.68-3.7 166.88-0.3Q163.63-0.05 160.26 0 156.88 0.05 153.53 0.05L153.53 0.05Q149.73 0.05 148.13-1.8 146.53-3.65 146.53-6.45L146.53-6.45 146.53-34.5Z" opacity="1" transform="matrix(1,0,0,1,0,0)" fill="#374151" class="undefined-text-1" data-fill-palette-color="secondary" id="text-1"></path></svg></g></svg></g></svg></g></svg></g><g><svg viewBox="0 0 118.656 121.41075727157924" height="121.41075727157924" width="118.656"><g><svg xmlns="http://www.w3.org/2000/svg" xmlns:xlink="http://www.w3.org/1999/xlink" version="1.1" x="0" y="0" viewBox="6.020998954772949 5 87.95793914794922 90" enable-background="new 0 0 100 100" xml:space="preserve" height="121.41075727157924" width="118.656" class="icon-icon-0" data-fill-palette-color="accent" id="icon-0"><g fill="#374151" data-fill-palette-color="accent"><path d="M58.296 60.819c0.429 0.287 0.923 0.431 1.418 0.431s0.99-0.144 1.418-0.431c0.873-0.582 21.401-14.377 28.963-28.234 1.871-2.898 2.858-6.245 2.858-9.688C92.953 13.027 84.924 5 75.056 5c-7.257 0-12.631 6.021-15.341 9.167C57.004 11.021 51.631 5 44.375 5c-9.87 0-17.899 8.027-17.899 17.897 0 3.442 0.989 6.789 2.858 9.688C36.895 46.442 57.423 60.237 58.296 60.819zM44.375 10.112c5.112 0 9.388 4.975 11.687 7.648 1.428 1.662 2.215 2.579 3.653 2.579s2.225-0.917 3.655-2.579c2.297-2.674 6.573-7.648 11.687-7.648 7.049 0 12.784 5.736 12.784 12.785 0 2.481-0.721 4.896-2.083 6.979-0.038 0.059-0.075 0.12-0.108 0.182-5.84 10.787-21.186 22.169-25.934 25.523-4.748-3.354-20.092-14.736-25.934-25.523-0.034-0.062-0.07-0.123-0.108-0.182-1.362-2.083-2.083-4.497-2.083-6.979C31.589 15.849 37.324 10.112 44.375 10.112z" fill="#374151" data-fill-palette-color="accent"></path><path d="M90.461 60.201c-4.676-2.739-8.597 1.323-10.074 2.851-3.113 3.225-6.863 6.413-8.761 7.979-0.806-0.361-1.695-0.566-2.631-0.575-5.783-0.311-14.897-1.354-17.178-2.71-2.451-1.457-4.414-2.88-6.145-4.134-4.975-3.606-8.903-6.452-18.686-6.452-2.836 0-5.322 0.786-7.727 1.548-2.468 0.782-4.8 1.521-7.613 1.521-3.103 0-5.625 2.522-5.625 5.625V80.17c0 3.103 2.522 5.625 5.625 5.625 5.348 0 13.709 0.275 15.554 0.891 3.325 1.108 11.118 5.729 13.84 7.415 0.035 0.021 0.07 0.043 0.105 0.062C42.13 94.71 43.247 95 44.375 95h26c2.752 0 5.811-2.546 6.872-4.307 3.409-5.657 15.633-21.05 15.756-21.205 0.11-0.14 0.205-0.29 0.284-0.448C94.871 65.872 93.655 62.071 90.461 60.201zM70.374 89.885h-26c-0.246 0-0.489-0.059-0.706-0.17-0.961-0.595-10.421-6.404-14.851-7.88-3.294-1.098-14.883-1.154-17.171-1.154-0.283 0-0.513-0.229-0.513-0.511V65.853c0-0.284 0.23-0.513 0.513-0.513 3.602 0 6.554-0.935 9.155-1.758 2.222-0.703 4.14-1.31 6.185-1.31 8.124 0 10.97 2.062 15.686 5.479 1.819 1.318 3.882 2.812 6.53 4.389 1.33 0.791 3.533 1.412 6.003 1.895 5.309 1.038 11.848 1.438 13.579 1.53 0.044 0.003 0.089 0.003 0.135 0.003 0.845 0 1.534 0.688 1.534 1.535 0 0.846-0.688 1.532-1.534 1.532-0.045 0-0.089 0.003-0.135 0.005l-19.348 1.018c-1.541-0.056-5.177-2.631-7.592-4.339-0.625-0.444-1.235-0.87-1.835-1.284-1.307-0.904-2.555-1.716-3.697-2.287-1.263-0.635-2.798-0.12-3.429 1.143s-0.12 2.799 1.143 3.431c1.317 0.657 3.04 1.878 4.865 3.17 3.835 2.716 7.459 5.282 10.597 5.282 0.045 0 0.091-0.002 0.135-0.003l19.373-1.021c3.631-0.04 6.573-3.008 6.573-6.646 0-0.823-0.149-1.611-0.425-2.341 2.051-1.699 5.745-4.866 8.924-8.156 2.178-2.256 3.047-2.44 3.812-1.992 0.678 0.398 1.175 1.175 0.913 1.954-1.699 2.145-12.558 15.899-15.924 21.486C72.42 88.795 70.92 89.827 70.374 89.885z" fill="#374151" data-fill-palette-color="accent"></path></g></svg></g></svg></g></svg></g></svg></g></svg></g><defs></defs></svg><rect width="320" height="360" fill="none" stroke="none" visibility="hidden"></rect></g></svg></g></svg>